<svg enable-background="new 0 0 86 86" viewBox="0 0 86 86" xmlns="http://www.w3.org/2000/svg"><g fill="#b51c2a"><path d="m53.3 12.8c0-5.8-4.7-10.5-10.5-10.5s-10.5 4.7-10.5 10.5c0 10.9-8.8 19.8-19.7 19.8h-.1c-5.8-.1-10.5 4.6-10.5 10.4s4.7 10.5 10.5 10.5c10.9 0 19.7 8.8 19.7 19.7 0 5.8 4.7 10.5 10.5 10.5s10.5-4.7 10.5-10.5-4.7-10.5-10.5-10.5c-10.9.1-19.7-8.8-19.7-19.7s8.8-19.8 19.8-19.8c10.9 0 19.8 8.8 19.8 19.8 0 5.8 4.7 10.5 10.4 10.5 5.8 0 10.5-4.7 10.5-10.5s-4.7-10.5-10.5-10.5c-10.9 0-19.7-8.9-19.7-19.7z"/><path d="m73 2.3c-5.8 0-10.5 4.7-10.5 10.5s4.7 10.5 10.5 10.5c5.8 0 10.5-4.7 10.5-10.5s-4.7-10.5-10.5-10.5z"/></g></svg>